<?xml version="1.0" encoding="utf-8"?>
<!-- Generator: Adobe Illustrator 16.0.0, SVG Export Plug-In . SVG Version: 6.00 Build 0)  -->
<!DOCTYPE svg PUBLIC "-//W3C//DTD SVG 1.1//EN" "http://www.w3.org/Graphics/SVG/1.1/DTD/svg11.dtd">
<svg version="1.1" id="Layer_1" xmlns="http://www.w3.org/2000/svg" xmlns:xlink="http://www.w3.org/1999/xlink" x="0px" y="0px"
	 width="584.521px" height="507.753px" viewBox="0 0 584.521 507.753" enable-background="new 0 0 584.521 507.753"
	 xml:space="preserve">
<g id="Layer_33">
	<path fill="#222222" d="M584.521,269.013v30.74H0.46v-30.74h108.311c0,0,23.479-0.751,60.459-36.579
		c13.119-12.698,25.532-24.946,36.973-36.376l46.463-44.781L397.852,0l35.055,39.431l-131.41,138.615
		c25.486,5.187,55.521,21.952,111.32,62.081c0,0,25.854,18.469,50.47,19.699c0,0,1.427-0.082,1.441-0.112
		c5.313-13.696,22.289-25.208,10.529-66.171c-7.768-27.062-39.483-80.268-39.483-80.268s-22.14-33.006,10.566-47.46
		c32.707-14.447,55.537-24.009,106.502-28.681c0,0,6.838,3.119,0,9.967c-6.852,6.849-46.702,35.975-25.381,73.653
		c14.566,25.715,47.724,63.724,46.643,148.259H584.521z M36.708,207.652c0,13.51-5.508,22.905-5.508,22.905v15.4h76.85v-15.4
		c0,0-5.947-9.411-5.947-22.905c0-13.486-2.016-16.397,10.837-40.631c12.849-24.211,14.732-15.221,14.732-34.493
		c0-19.276-11.583-52.013-58.463-52.013c-46.875,0-58.444,32.736-58.444,52.013c0,19.272,2.06,10.282,14.893,34.493
		C38.495,191.255,36.708,194.166,36.708,207.652z"/>
</g>
<g id="Layer_33_copy">
	<g>
		<path fill="#222222" d="M574.104,269.013c1.088-84.535-32.076-122.543-46.628-148.259c-21.321-37.679,18.537-66.812,25.382-73.653
			c6.837-6.848,0-9.967,0-9.967c-50.974,4.672-73.796,14.241-106.502,28.681c-32.706,14.454-10.566,47.46-10.566,47.46
			s31.715,53.206,39.482,80.268c11.761,40.963-5.216,52.475-10.529,66.171c-0.015,0.03-1.44,0.112-1.44,0.112
			c-24.616-1.23-50.471-19.699-50.471-19.699c-55.813-40.129-85.826-56.895-111.32-62.081L432.937,39.431L397.874,0L275.683,127.302
			c3.051-15.355,1.783-31.311-3.981-46.279c-6.548-16.991-19.31-30.425-35.963-37.824c-16.639-7.385-35.168-7.865-52.151-1.325
			c-28.665,11.036-43.029,43.344-31.994,72.002c9.062,23.539,35.581,35.329,59.112,26.267c9.415-3.636,16.852-10.713,20.942-19.918
			c4.098-9.216,4.357-19.468,0.739-28.89c-3.005-7.832-8.886-14.008-16.541-17.404c-7.651-3.399-16.192-3.621-24.008-0.608
			c-13.509,5.193-20.278,20.417-15.078,33.945c4.398,11.403,17.262,17.115,28.658,12.725c-1.914-5.055-2.514-6.256-4.18-10.897
			c-5.411,2.083-11.505-0.615-13.588-6.03c-2.889-7.509,0.863-15.963,8.379-18.852c4.908-1.891,10.267-1.745,15.078,0.382
			c4.803,2.12,8.499,6.02,10.383,10.928c2.51,6.51,2.326,13.595-0.503,19.959c-2.826,6.379-7.967,11.257-14.47,13.764
			c-17.52,6.755-37.28-2.037-44.027-19.558c-8.721-22.665,2.619-48.192,25.284-56.917c14.087-5.415,29.441-5.024,43.235,1.107
			c13.794,6.116,24.376,17.253,29.795,31.34c6.923,17.975,6.424,37.566-1.4,55.153c-1.381,3.122-3.021,6.049-4.788,8.879
			l-1.951,2.041l-46.463,44.774c-11.441,11.43-23.854,23.678-36.973,36.376c-36.98,35.82-60.459,36.571-60.459,36.571H0.46v30.74
			h584.061v-30.74H574.104z"/>
		<path fill="#222222" d="M36.708,207.652c0,13.51-5.508,22.905-5.508,22.905v15.4h76.85v-15.4c0,0-5.947-9.411-5.947-22.905
			c0-13.486-2.016-16.397,10.837-40.631c12.849-24.211,14.732-15.221,14.732-34.493c0-19.276-11.583-52.013-58.463-52.013
			c-46.875,0-58.444,32.736-58.444,52.013c0,19.272,2.06,10.282,14.893,34.493C38.495,191.255,36.708,194.166,36.708,207.652z"/>
	</g>
</g>
<rect x="0.46" y="477.013" fill="#222222" width="584.061" height="30.74"/>
<g>
	<path fill="#222222" d="M33.211,360.328l-0.079,0.078c0,0.266,1.07,1.495,3.21,3.686c2.141,2.194,5.046,5.419,8.719,9.671
		c3.672,4.255,6.936,8.549,9.79,12.881c-2.061,1.534-4.07,2.299-6.024,2.299c-1.639,0-3.912-0.528-6.817-1.586
		c-1.851-2.271-4.294-5.588-7.332-9.948c-3.039-4.358-5.576-7.897-7.609-10.621c-2.035-2.721-3.369-4.081-4.002-4.081
		c-0.317,0-0.846-0.012-1.586-0.04c-0.74-0.026-1.295-0.04-1.664-0.04c-0.582,0-1.506,0.054-2.774,0.158
		c0.052,3.542,0.264,9.407,0.634,17.597c0.739,0.266,1.73,0.424,2.973,0.477c1.241,0.053,2.285,0.225,3.131,0.515
		c0.845,0.292,1.479,0.86,1.902,1.704c0.317,0.529,0.475,1.059,0.475,1.586c0,1.005-0.634,2.034-1.902,3.09
		c-1.11,0.107-2.511,0.252-4.201,0.438c-1.692,0.186-3.185,0.33-4.479,0.436c-1.295,0.106-2.576,0.158-3.844,0.158
		c-2.802,0-6.341-0.343-10.621-1.031c-0.688-0.738-1.031-1.53-1.031-2.377c0-1.109,0.792-2.324,2.378-3.646
		c0.476-0.209,0.951-0.316,1.427-0.316s0.951,0.197,1.427,0.595c0.476,0.396,0.819,0.594,1.031,0.594
		c0.369,0,0.818-0.289,1.347-0.872l0.238-14.268c0.264-4.648,0.396-11.176,0.396-19.578l-0.08-11.256
		c-0.265,0.266-1.03,0.396-2.298,0.396c-1.269,0-2.96-0.209-5.073-0.634C0.29,335.704,0,334.963,0,334.17
		c0-1.215,0.501-2.271,1.506-3.171c2.324-0.052,5.363-0.185,9.115-0.396c3.751-0.21,7.027-0.316,9.829-0.316
		c4.808,0,8.744,0.37,11.81,1.109c3.064,0.741,6.024,2.406,8.877,4.993c1.955,1.744,3.091,4.438,3.408,8.085
		c0,0.159,0.013,0.396,0.04,0.714c0.025,0.316,0.04,0.555,0.04,0.713c0,2.326-0.713,4.571-2.14,6.738
		C40.107,356.075,37.016,358.637,33.211,360.328z M19.023,336.865c-0.424,4.756-0.634,8.218-0.634,10.385
		c0,2.271,0.21,5.23,0.634,8.877c0.792,0.74,1.744,1.109,2.853,1.109c0.422,0,0.898-0.064,1.427-0.198
		c0.528-0.13,0.977-0.277,1.348-0.437c0.369-0.158,0.884-0.382,1.546-0.673c0.66-0.289,1.149-0.516,1.466-0.674
		c1.215-0.476,2.166-0.978,2.854-1.507c0.686-0.526,1.241-1.268,1.665-2.219c0.844-1.69,1.268-3.381,1.268-5.072
		c0-1.638-0.424-3.302-1.268-4.994c-1.005-2.061-2.96-3.593-5.866-4.598c-1.585-0.527-2.722-0.792-3.408-0.792
		C21.956,336.073,20.661,336.337,19.023,336.865z"/>
	<path fill="#222222" d="M111.445,341.462c2.905,4.122,4.36,8.693,4.36,13.712c0,2.803-0.45,6.5-1.348,11.098
		c-0.317,1.639-0.82,3.238-1.506,4.796c-0.687,1.56-1.321,2.787-1.902,3.686c-0.582,0.899-1.466,2.18-2.655,3.844
		c-1.189,1.665-2.048,2.894-2.576,3.687c-3.646,5.497-9.116,8.243-16.408,8.243c-4.704,0-8.772-0.872-12.207-2.615
		c-1.956-1.003-3.581-1.89-4.875-2.656c-1.295-0.766-2.722-1.743-4.28-2.933c-1.56-1.188-2.828-2.378-3.805-3.566
		c-0.978-1.188-1.863-2.602-2.655-4.241c-0.792-1.637-1.347-3.408-1.665-5.311c-0.529-3.593-0.792-6.579-0.792-8.957
		c0-6.182,1.875-11.757,5.628-16.725c3.329-4.385,6.987-7.581,10.978-9.591c3.989-2.008,8.731-3.012,14.228-3.012h0.317
		c4.649,0,8.692,0.832,12.127,2.497C105.843,335.082,108.854,337.765,111.445,341.462z M72.447,360.01
		c0,0.317-0.039,1.109-0.119,2.377c-0.08,1.269-0.119,2.22-0.119,2.854c0,3.382,0.739,6.448,2.219,9.195
		c1.214,2.113,2.536,3.764,3.963,4.953s3.275,2.154,5.549,2.894c2.113,0.74,4.015,1.109,5.707,1.109c2.007,0,4.094-0.58,6.262-1.744
		c2.324-1.319,4.082-2.865,5.271-4.637c1.189-1.77,2.417-4.293,3.686-7.57c1.69-4.173,2.537-7.978,2.537-11.413
		c0-1.637-0.158-3.46-0.476-5.47c-0.476-2.854-1.137-5.192-1.981-7.015c-0.846-1.822-2.219-3.554-4.122-5.191
		c-3.277-2.854-6.5-4.28-9.67-4.28c-1.743,0-3.422,0.305-5.033,0.911c-1.612,0.608-2.92,1.257-3.923,1.942
		c-1.005,0.688-2.021,1.638-3.052,2.854c-1.031,1.216-1.732,2.089-2.101,2.615c-0.371,0.529-0.846,1.296-1.427,2.299
		c-0.899,1.427-1.573,2.907-2.021,4.438c-0.45,1.534-0.727,2.814-0.832,3.845C72.657,356.007,72.552,357.685,72.447,360.01z"/>
	<path fill="#222222" d="M133.956,387.593c-0.846-0.844-1.268-1.795-1.268-2.854c0-0.686,0.21-1.319,0.634-1.901
		c0.792-1.11,1.981-1.665,3.566-1.665c0.476,0,1.229,0.068,2.259,0.198c1.031,0.133,1.835,0.198,2.417,0.198
		c0.527,0,0.923-0.025,1.189-0.079c0-0.476-0.014-1.175-0.039-2.101c-0.028-0.924-0.04-1.598-0.04-2.021
		c0-5.073,0.317-10.989,0.951-17.755c0.634-6.764,0.951-11.94,0.951-15.536c0-2.165-0.079-4.569-0.238-7.213
		c-0.951-0.051-2.457-0.197-4.518-0.436c-2.061-0.238-3.991-0.356-5.786-0.356c-0.265,0-0.674,0.014-1.229,0.039
		c-0.555,0.028-0.991,0.04-1.308,0.04c-1.797,1.059-2.893,2.298-3.289,3.725c-0.397,1.428-0.86,3.344-1.388,5.747
		c-0.529,2.406-1.692,4.874-3.487,7.411c-0.317,0.266-0.688,0.396-1.11,0.396c-1.216,0-2.352-1.637-3.408-4.915
		c0.581-2.587,1.003-4.636,1.268-6.143c0.264-1.506,0.396-2.429,0.396-2.774c0-0.343,0.119-1.003,0.357-1.981
		c0.237-0.977,0.673-2.521,1.308-4.637c0.369-0.368,0.753-0.66,1.149-0.871c0.396-0.211,0.726-0.344,0.991-0.396
		c0.264-0.053,0.674-0.105,1.229-0.158c0.555-0.053,0.963-0.105,1.229-0.159c1.902-0.317,4.042-0.476,6.42-0.476
		c1.902,0,4.756,0.198,8.561,0.594c3.805,0.396,6.921,0.596,9.353,0.596c2.325,0,5.244-0.238,8.758-0.714
		c3.514-0.476,6.143-0.713,7.887-0.713c1.902,0,4.015,0.237,6.341,0.713c1.11,0.212,2.033,0.661,2.775,1.348
		c1.056,1.109,1.65,1.731,1.783,1.862c0.131,0.133,0.343,0.49,0.634,1.07c0.289,0.583,0.447,1.11,0.475,1.585
		c0.026,0.476,0.396,1.665,1.11,3.566c0.713,1.903,1.625,4.176,2.735,6.817c-0.266,1.004-0.753,1.837-1.467,2.497
		c-0.713,0.662-1.545,0.99-2.497,0.99c-0.371,0-0.634-0.025-0.792-0.079c-1.744-2.43-3.026-4.86-3.845-7.292
		c-0.82-2.43-1.533-4.253-2.14-5.47c-0.608-1.214-1.758-2.191-3.448-2.933c-4.017,0.951-8.985,1.613-14.901,1.982
		c0,5.918,0.21,13.779,0.634,23.58c0.422,9.803,0.66,16.871,0.713,21.203c0,0.634,0.396,0.951,1.189,0.951
		c0.21,0,0.62-0.04,1.229-0.118c0.606-0.08,1.07-0.119,1.387-0.119c0.793,0,1.32,0.212,1.585,0.634
		c0.634,0.846,0.951,1.823,0.951,2.933c0,1.376-0.529,2.511-1.585,3.408c-3.912,0-6.831-0.025-8.759-0.079
		c-1.93-0.052-4.413-0.249-7.451-0.595C141.339,388.796,137.865,388.282,133.956,387.593z"/>
	<path fill="#222222" d="M187.855,334.804c-0.475-0.634-0.713-1.295-0.713-1.981c0-0.793,0.317-1.479,0.952-2.062
		c3.91,0.054,6.868,0.107,8.877,0.159c2.007,0.054,3.262,0.093,3.765,0.119c0.501,0.027,0.912,0.053,1.229,0.079
		c0.317,0.027,0.621,0.054,0.912,0.079c0.289,0.027,1.348,0.079,3.171,0.158c1.823,0.08,4.399,0.172,7.728,0.277
		c0.422,0.424,0.634,0.979,0.634,1.665c0,0.688-0.212,1.269-0.634,1.743c-0.583,0.583-1.296,0.872-2.14,0.872
		c-0.476,0-1.217-0.104-2.219-0.317c-1.005-0.209-1.718-0.316-2.141-0.316c-0.846,0-1.506,0.238-1.981,0.713
		c-0.265,4.017-0.396,7.134-0.396,9.354c0,0.634,0.012,1.97,0.04,4.003c0.026,2.035,0.04,4.03,0.04,5.984h27.743
		c0.104-2.008,0.158-4.465,0.158-7.371v-3.171c0-2.588,0.159-4.94,0.476-7.055c-0.529-0.792-1.653-1.255-3.369-1.388
		c-1.718-0.13-2.842-0.566-3.369-1.308c-0.476-0.686-0.713-1.452-0.713-2.298c0-0.739,0.238-1.32,0.713-1.744
		c4.648-0.476,7.793-0.713,9.433-0.713c2.112,0,5.679,0.396,10.7,1.188c0.317,0.424,0.476,0.82,0.476,1.188
		c0,0.371-0.159,0.873-0.476,1.507c-0.424,0.846-1.415,1.559-2.972,2.14c-1.56,0.582-2.55,1.269-2.973,2.062v42.009
		c0.264,0.635,0.833,1.309,1.704,2.021c0.872,0.714,1.438,1.387,1.704,2.021c0.21,0.476,0.343,0.965,0.397,1.466
		c0.051,0.504,0.079,1.059,0.079,1.665c0,0.608,0.025,1.124,0.079,1.546c-6.341,0.582-9.724,0.871-10.146,0.871
		c-0.212,0-0.662-0.014-1.348-0.039c-0.688-0.027-1.823-0.054-3.408-0.079c-1.585-0.028-3.567-0.04-5.945-0.04
		c0.105-0.475,0.184-1.096,0.238-1.862c0.051-0.766,0.145-1.427,0.277-1.981c0.131-0.555,0.408-1.07,0.833-1.546
		c0.475-0.635,1.28-1.03,2.417-1.188c1.135-0.159,2.126-0.357,2.972-0.596c0.844-0.237,1.294-0.778,1.348-1.624
		c0.104-1.374,0.198-2.522,0.277-3.447s0.145-1.519,0.198-1.784c0.052-0.264,0.091-0.487,0.119-0.674
		c0.025-0.185,0.04-0.356,0.04-0.515c0-0.053-0.014-0.502-0.04-1.349c-0.028-0.844-0.054-2.364-0.079-4.557
		c-0.028-2.192-0.04-4.927-0.04-8.204c-4.07-0.264-6.315-0.502-6.737-0.714c-0.107-0.051-0.45-0.079-1.03-0.079
		c-1.902,0-8.64,0.133-20.212,0.396c0.476,7.346,0.713,11.468,0.713,12.365c0,0.212-0.028,0.317-0.079,0.317
		c-0.054-0.264-0.107-0.396-0.159-0.396c-0.054,0-0.079,0.529-0.079,1.585c0,2.272,0.052,4.625,0.158,7.055
		c0.634,0.951,2.007,1.494,4.122,1.624c2.113,0.133,3.435,0.729,3.963,1.784c0.264,0.635,0.396,1.163,0.396,1.585
		c0,0.951-0.45,1.772-1.347,2.458c-3.171,0.053-5.775,0.118-7.808,0.197c-2.035,0.08-3.437,0.147-4.201,0.198
		c-0.767,0.054-1.336,0.08-1.704,0.08c-0.792,0-4.783-0.396-11.969-1.19c-0.846-0.685-1.269-1.505-1.269-2.456
		c0-0.634,0.185-1.161,0.555-1.585c0.368-0.528,0.951-0.794,1.744-0.794c0.476,0,1.24,0.147,2.298,0.437
		c1.057,0.291,1.823,0.436,2.299,0.436c0.739,0,1.319-0.237,1.743-0.713c-0.053-1.849-0.079-4.173-0.079-6.976
		c0-3.697,0.21-8.56,0.634-14.584c0.422-6.023,0.713-14.239,0.872-24.651c-0.529-0.739-1.4-1.109-2.615-1.109
		c-0.212,0-0.583,0.027-1.11,0.079c-0.529,0.054-0.925,0.079-1.189,0.079C189.229,335.914,188.382,335.545,187.855,334.804z"/>
	<path fill="#222222" d="M284.478,338.768c-2.009-0.369-3.963-0.556-5.866-0.556c-1.956,0-4.28,0.237-6.976,0.714
		c-0.158,0.053-0.396,0.078-0.713,0.078c-0.158,0-0.37-0.012-0.633-0.039c-0.266-0.025-0.45-0.039-0.555-0.039
		c-0.634,0-1.137,0.212-1.506,0.634c-0.053,2.431-0.079,5.364-0.079,8.798c0,3.754,0.026,7.135,0.079,10.146
		c4.015,0.74,6.208,1.109,6.579,1.109c0.951,0,2.14-0.158,3.567-0.476c0.951-0.634,1.427-1.744,1.427-3.329
		c0-0.264-0.014-0.635-0.04-1.109c-0.027-0.476-0.039-0.819-0.039-1.03c0-1.638,0.475-2.747,1.427-3.33
		c0.581-0.368,1.214-0.555,1.902-0.555c1.056,0,1.981,0.424,2.774,1.269c0,2.802,0.105,10.463,0.317,22.987
		c-1.533,0.633-2.616,0.95-3.25,0.95c-0.688,0-1.506-0.554-2.457-1.664c-0.107-0.422-0.159-0.977-0.159-1.665
		c0-0.844,0.185-1.585,0.555-2.22c0.369-0.634,0.555-1.056,0.555-1.268c0-0.159-0.079-0.448-0.237-0.872
		c-0.212-0.369-0.476-0.674-0.792-0.911c-0.317-0.238-0.569-0.396-0.753-0.477c-0.187-0.078-0.583-0.197-1.189-0.355
		c-0.608-0.159-0.965-0.264-1.07-0.317c-2.009-0.635-3.542-0.951-4.598-0.951c-0.634,0-1.348,0.079-2.14,0.238
		c-1.534,0.424-2.536,1.108-3.012,2.061c-0.634,3.17-1.018,5.628-1.149,7.371c-0.133,1.743-0.198,4.467-0.198,8.164
		c0.527,1.163,1.427,1.902,2.695,2.219c2.958,0.742,6.05,1.11,9.274,1.11c1.268,0,3.117-0.065,5.549-0.198
		c2.429-0.131,4.015-0.224,4.755-0.277c1.003-0.527,1.744-1.121,2.219-1.783c0.476-0.659,0.805-1.32,0.991-1.982
		c0.184-0.659,0.566-1.597,1.149-2.813c0.581-1.214,1.399-2.457,2.457-3.726c0.368,0.425,0.674,0.821,0.911,1.189
		c0.238,0.37,0.423,0.674,0.556,0.912c0.131,0.237,0.237,0.555,0.316,0.951c0.08,0.396,0.131,0.661,0.158,0.792
		c0.026,0.133,0.041,0.464,0.041,0.99c0,0.529,0,0.872,0,1.031c0.051,0.688,0.078,1.639,0.078,2.854c0,2.961-0.846,5.101-2.536,6.42
		h-43.278c-1.956-0.634-2.933-1.452-2.933-2.457c0-0.158,0.012-0.303,0.04-0.436c0.026-0.131,0.08-0.25,0.159-0.357
		c0.079-0.104,0.158-0.209,0.237-0.316c0.079-0.105,0.198-0.199,0.357-0.277c0.158-0.08,0.277-0.145,0.356-0.198
		c0.079-0.052,0.224-0.119,0.436-0.198c0.21-0.079,0.356-0.145,0.436-0.198c0.08-0.052,0.238-0.105,0.476-0.158
		c0.237-0.052,0.382-0.105,0.436-0.158c0.159-0.053,0.396-0.08,0.713-0.08c0.422,0,1.031,0.119,1.823,0.356
		c0.792,0.238,1.32,0.357,1.585,0.357c0.527,0,0.818-0.264,0.872-0.793c1.319-13.209,1.981-23.831,1.981-31.864
		c0-3.909-0.079-8.611-0.238-14.108c-0.899,0-1.664,0.039-2.298,0.119c-0.634,0.078-1.07,0.186-1.308,0.316
		c-0.237,0.133-0.436,0.237-0.594,0.317c-0.158,0.079-0.317,0.119-0.476,0.119s-0.475-0.08-0.951-0.238
		c-1.797-0.897-2.695-1.954-2.695-3.171v-0.237c0.105-1.427,0.673-2.523,1.704-3.289c1.03-0.766,2.497-1.467,4.399-2.102h7.927
		c3.38,0,6.856-0.012,10.423-0.039c3.567-0.025,5.667-0.039,6.302-0.039c3.488,0,7.898,0.475,13.237,1.427
		c0.052,0.899,0.092,1.797,0.119,2.694c0.025,0.899,0.052,1.573,0.079,2.021c0.026,0.449,0.04,0.911,0.04,1.387
		s0.012,0.833,0.039,1.07c0.026,0.237,0.052,0.463,0.08,0.674c0.025,0.211,0.079,0.424,0.158,0.634
		c0.079,0.212,0.158,0.41,0.237,0.595c0.079,0.187,0.185,0.464,0.317,0.833c0.131,0.369,0.277,0.74,0.436,1.108
		c0.104,0.424,0.487,0.951,1.149,1.586c0.66,0.634,0.991,1.109,0.991,1.427v0.079l-0.08,0.158c-2.589,0.846-4.545,1.269-5.865,1.269
		c-0.424,0-0.9-0.026-1.427-0.079c-0.529-0.052-1.268-0.119-2.22-0.199c-0.951-0.078-1.823-0.145-2.616-0.197
		c-0.158-0.211-0.237-0.369-0.237-0.476c0-0.159,0.277-0.487,0.832-0.99c0.555-0.502,0.832-1.122,0.832-1.863
		c0-0.423-0.027-0.739-0.079-0.951c-0.317-1.32-0.503-2.087-0.555-2.299c-0.054-0.21-0.251-0.423-0.595-0.634
		C285.282,339.746,284.9,339.35,284.478,338.768z"/>
	<path fill="#222222" d="M351.456,335.28c-0.951,0-2.035,0.158-3.25,0.476c-1.217,0.317-2.01,0.476-2.378,0.476
		c-0.741,0-1.427-0.317-2.061-0.951c-0.317-0.316-0.477-0.686-0.477-1.109c0-0.264,0.119-0.714,0.357-1.348
		c0.237-0.635,0.356-1.109,0.356-1.427c0-0.264-0.079-0.555-0.237-0.872c3.275-0.21,5.6-0.317,6.975-0.317
		c2.22,0,5.838,0.158,10.859,0.477c0.634,0,0.951,0.37,0.951,1.108c0,1.322-0.556,2.537-1.664,3.646
		c-0.529,0.476-1.059,0.714-1.586,0.714c-0.158,0-0.583-0.04-1.269-0.119c-0.687-0.079-1.321-0.119-1.902-0.119
		c-0.266,5.231-0.396,10.174-0.396,14.822c0,2.59,0.065,5.801,0.198,9.631c0.13,3.832,0.197,6.83,0.197,8.997
		c0,4.069-0.132,8.321-0.396,12.761c-0.054,0.054-0.226,0.345-0.516,0.872c-0.292,0.529-0.543,0.925-0.753,1.188
		c-0.212,0.266-0.515,0.543-0.911,0.833c-0.396,0.291-0.807,0.463-1.229,0.515h-0.316c-1.163,0-2.405-0.896-3.726-2.694
		l-32.26-39.235c0.475,5.706,0.713,10.199,0.713,13.475c0,2.59-0.158,6.023-0.476,10.305c-0.317,4.279-0.476,8.005-0.476,11.176
		v2.219c0.211,0.635,0.793,0.951,1.743,0.951h0.793c0.739,0,1.241,0.212,1.507,0.634c0.209,0.371,0.316,0.768,0.316,1.189
		c0,0.37-0.146,0.952-0.436,1.744c-0.291,0.793-0.465,1.4-0.516,1.823c-1.851,0.053-4.149,0.172-6.896,0.356
		c-2.748,0.187-5.072,0.276-6.975,0.276h-2.378c-0.054-0.422-0.237-1.029-0.556-1.821c-0.316-0.794-0.475-1.374-0.475-1.745
		c0-0.368,0.105-0.739,0.316-1.109c0.581-0.792,1.586-1.188,3.013-1.188c0.476,0,1.161,0.053,2.061,0.158
		c0.897,0.107,1.532,0.158,1.903,0.158c0.633,0,1.108-0.158,1.426-0.476c-0.212-5.548-0.317-10.409-0.317-14.584
		c0-2.008,0.052-5.971,0.159-11.89c0.104-5.917,0.158-11.757,0.158-17.518c-0.266-0.422-0.899-0.634-1.902-0.634
		c-0.37,0-0.991,0.039-1.862,0.119c-0.872,0.079-1.521,0.119-1.942,0.119c-1.851,0-2.961-0.555-3.329-1.665
		c-0.107-0.317-0.158-0.555-0.158-0.713c0-1.216,1.11-2.325,3.329-3.33c2.536-0.634,4.648-0.95,6.341-0.95
		c1.954,0,4.86,0.528,8.72,1.585c2.324,2.801,4.899,5.879,7.728,9.234c2.826,3.356,4.821,5.734,5.984,7.133
		c1.162,1.401,2.667,3.238,4.518,5.509c1.849,2.273,3.646,4.586,5.391,6.936c1.744,2.353,3.936,5.325,6.579,8.918L351.456,335.28z"
		/>
	<path fill="#222222" d="M366.674,337.023c-0.528-0.58-0.792-1.294-0.792-2.14c0-1.269,0.501-2.35,1.506-3.25
		c3.646-0.95,6.948-1.427,9.907-1.427c2.062,0,5.073,0.266,9.037,0.793c1.057,0.107,2.616,0.252,4.676,0.437
		c2.062,0.186,3.607,0.355,4.638,0.515s2.298,0.424,3.805,0.793c1.505,0.37,2.879,0.912,4.122,1.625
		c1.24,0.713,2.468,1.599,3.686,2.654c1.215,1.059,2.046,2.208,2.497,3.449c0.447,1.241,0.753,2.812,0.911,4.716
		c0.051,0.371,0.079,0.925,0.079,1.665c0,2.377-0.713,4.518-2.14,6.42c-0.529,0.74-0.965,1.282-1.309,1.625
		c-0.345,0.345-0.647,0.673-0.911,0.99c-0.266,0.317-0.701,0.595-1.308,0.832c-0.609,0.238-1.098,0.436-1.467,0.596
		c-0.37,0.158-1.188,0.449-2.457,0.871c-1.269,0.424-2.378,0.82-3.329,1.188c1.426,1.005,2.894,1.759,4.398,2.26
		c1.507,0.504,2.747,0.979,3.727,1.427c0.977,0.449,1.862,1.256,2.655,2.417c1.478,2.009,2.219,4.388,2.219,7.135
		c0,0.582-0.053,1.663-0.158,3.249c-0.212,1.955-0.41,3.448-0.595,4.479c-0.186,1.03-0.623,2.194-1.308,3.487
		c-0.688,1.296-1.639,2.393-2.854,3.29c-2.748,2.061-6.023,3.091-9.828,3.091c-0.951,0-2.485-0.079-4.597-0.238
		c-2.114-0.158-3.754-0.237-4.915-0.237c-1.004,0-1.771,0.028-2.298,0.079l-9.988,0.714c-2.431,0-5.417-0.238-8.956-0.714
		c-0.688-0.844-1.03-1.769-1.03-2.774c0-1.795,0.792-3.354,2.377-4.677c0.477-0.209,1.031-0.316,1.665-0.316
		c0.686,0,1.61,0.198,2.774,0.594c1.161,0.396,1.981,0.596,2.457,0.596c0.739,0,1.373-0.289,1.902-0.873v-1.427
		c0-2.429-0.237-4.662-0.713-6.697c-0.477-2.033-0.714-3.578-0.714-4.637c0-0.159,0.013-0.396,0.04-0.714
		c0.025-0.316,0.039-0.555,0.039-0.713l2.062-30.913c-0.688-0.686-1.297-1.03-1.823-1.03c-0.266,0-0.926,0.187-1.981,0.556
		c-1.059,0.369-2.089,0.555-3.092,0.555C368.444,337.341,367.572,337.236,366.674,337.023z M391.484,383.71
		c2.854-0.317,5.072-1.558,6.658-3.726c1.585-2.167,2.377-4.623,2.377-7.371c0-2.379-0.607-4.451-1.822-6.223
		c-1.217-1.771-2.933-2.786-5.152-3.052c-0.317-0.052-1.229-0.198-2.734-0.437c-1.507-0.237-2.576-0.356-3.211-0.356
		c-1.851,0-2.802,0.714-2.854,2.141c-0.475,6.447-0.713,10.278-0.713,11.493v2.14c0.051,1.585,0.726,2.893,2.021,3.924
		c1.294,1.03,2.787,1.545,4.479,1.545C390.955,383.789,391.271,383.763,391.484,383.71z M386.729,337.023
		c-0.425,4.81-0.635,8.192-0.635,10.146c0,2.009,0.21,4.862,0.635,8.56c0.844,0.688,1.69,1.031,2.536,1.031
		c0.58,0,1.188-0.119,1.823-0.356c0.634-0.238,1.388-0.595,2.259-1.07c0.872-0.476,1.546-0.818,2.021-1.03
		c2.323-1.056,3.805-2.324,4.438-3.806c0.739-1.478,1.109-2.957,1.109-4.438c0-1.478-0.37-2.933-1.109-4.359
		c-0.583-1.214-1.321-2.151-2.219-2.813c-0.9-0.659-2.089-1.28-3.568-1.863c-1.426-0.475-2.589-0.713-3.486-0.713
		C389.475,336.31,388.206,336.548,386.729,337.023z"/>
	<path fill="#222222" d="M448.713,338.768c-2.01-0.369-3.964-0.556-5.866-0.556c-1.956,0-4.28,0.237-6.975,0.714
		c-0.159,0.053-0.396,0.078-0.714,0.078c-0.158,0-0.371-0.012-0.635-0.039c-0.265-0.025-0.449-0.039-0.554-0.039
		c-0.635,0-1.138,0.212-1.507,0.634c-0.053,2.431-0.079,5.364-0.079,8.798c0,3.754,0.026,7.135,0.079,10.146
		c4.015,0.74,6.209,1.109,6.579,1.109c0.951,0,2.141-0.158,3.567-0.476c0.95-0.634,1.427-1.744,1.427-3.329
		c0-0.264-0.014-0.635-0.04-1.109c-0.027-0.476-0.04-0.819-0.04-1.03c0-1.638,0.476-2.747,1.427-3.33
		c0.581-0.368,1.216-0.555,1.903-0.555c1.056,0,1.981,0.424,2.773,1.269c0,2.802,0.105,10.463,0.317,22.987
		c-1.533,0.633-2.615,0.95-3.249,0.95c-0.688,0-1.507-0.554-2.458-1.664c-0.107-0.422-0.158-0.977-0.158-1.665
		c0-0.844,0.184-1.585,0.555-2.22c0.369-0.634,0.555-1.056,0.555-1.268c0-0.159-0.079-0.448-0.238-0.872
		c-0.211-0.369-0.475-0.674-0.792-0.911c-0.317-0.238-0.568-0.396-0.753-0.477c-0.187-0.078-0.583-0.197-1.189-0.355
		c-0.607-0.159-0.965-0.264-1.07-0.317c-2.009-0.635-3.541-0.951-4.597-0.951c-0.635,0-1.348,0.079-2.14,0.238
		c-1.534,0.424-2.537,1.108-3.012,2.061c-0.635,3.17-1.02,5.628-1.15,7.371c-0.133,1.743-0.198,4.467-0.198,8.164
		c0.527,1.163,1.427,1.902,2.695,2.219c2.959,0.742,6.05,1.11,9.274,1.11c1.268,0,3.117-0.065,5.548-0.198
		c2.43-0.131,4.015-0.224,4.756-0.277c1.002-0.527,1.744-1.121,2.22-1.783c0.475-0.659,0.805-1.32,0.99-1.982
		c0.185-0.659,0.567-1.597,1.149-2.813c0.581-1.214,1.399-2.457,2.457-3.726c0.369,0.425,0.674,0.821,0.912,1.189
		c0.237,0.37,0.422,0.674,0.555,0.912c0.131,0.237,0.237,0.555,0.317,0.951c0.079,0.396,0.131,0.661,0.158,0.792
		c0.025,0.133,0.039,0.464,0.039,0.99c0,0.529,0,0.872,0,1.031c0.052,0.688,0.08,1.639,0.08,2.854c0,2.961-0.847,5.101-2.537,6.42
		h-43.278c-1.955-0.634-2.932-1.452-2.932-2.457c0-0.158,0.012-0.303,0.039-0.436c0.025-0.131,0.08-0.25,0.158-0.357
		c0.08-0.104,0.158-0.209,0.238-0.316c0.079-0.105,0.198-0.199,0.356-0.277c0.158-0.08,0.277-0.145,0.357-0.198
		c0.078-0.052,0.223-0.119,0.436-0.198c0.209-0.079,0.356-0.145,0.436-0.198c0.08-0.052,0.238-0.105,0.476-0.158
		c0.238-0.052,0.383-0.105,0.436-0.158c0.159-0.053,0.396-0.08,0.714-0.08c0.422,0,1.03,0.119,1.823,0.356
		c0.793,0.238,1.32,0.357,1.586,0.357c0.526,0,0.817-0.264,0.871-0.793c1.32-13.209,1.982-23.831,1.982-31.864
		c0-3.909-0.08-8.611-0.238-14.108c-0.899,0-1.665,0.039-2.299,0.119c-0.635,0.078-1.07,0.186-1.308,0.316
		c-0.238,0.133-0.437,0.237-0.595,0.317c-0.159,0.079-0.317,0.119-0.476,0.119s-0.476-0.08-0.951-0.238
		c-1.797-0.897-2.695-1.954-2.695-3.171v-0.237c0.105-1.427,0.674-2.523,1.704-3.289c1.031-0.766,2.497-1.467,4.399-2.102h7.926
		c3.381,0,6.857-0.012,10.424-0.039c3.566-0.025,5.668-0.039,6.301-0.039c3.488,0,7.899,0.475,13.238,1.427
		c0.051,0.899,0.091,1.797,0.118,2.694c0.026,0.899,0.052,1.573,0.079,2.021c0.025,0.449,0.04,0.911,0.04,1.387
		s0.013,0.833,0.04,1.07c0.025,0.237,0.051,0.463,0.078,0.674c0.026,0.211,0.08,0.424,0.16,0.634
		c0.078,0.212,0.158,0.41,0.236,0.595c0.08,0.187,0.186,0.464,0.317,0.833c0.131,0.369,0.277,0.74,0.437,1.108
		c0.104,0.424,0.487,0.951,1.149,1.586c0.659,0.634,0.991,1.109,0.991,1.427v0.079l-0.08,0.158c-2.59,0.846-4.546,1.269-5.865,1.269
		c-0.424,0-0.9-0.026-1.427-0.079c-0.529-0.052-1.269-0.119-2.22-0.199c-0.951-0.078-1.823-0.145-2.616-0.197
		c-0.158-0.211-0.237-0.369-0.237-0.476c0-0.159,0.277-0.487,0.833-0.99c0.555-0.502,0.831-1.122,0.831-1.863
		c0-0.423-0.027-0.739-0.079-0.951c-0.316-1.32-0.503-2.087-0.555-2.299c-0.053-0.21-0.252-0.423-0.594-0.634
		C449.517,339.746,449.135,339.35,448.713,338.768z"/>
	<path fill="#222222" d="M501.423,360.328l-0.079,0.078c0,0.266,1.07,1.495,3.21,3.686c2.14,2.194,5.046,5.419,8.72,9.671
		c3.672,4.255,6.936,8.549,9.789,12.881c-2.062,1.534-4.071,2.299-6.024,2.299c-1.639,0-3.911-0.528-6.817-1.586
		c-1.851-2.271-4.293-5.588-7.332-9.948c-3.039-4.358-5.575-7.897-7.608-10.621c-2.035-2.721-3.369-4.081-4.004-4.081
		c-0.316,0-0.846-0.012-1.585-0.04c-0.74-0.026-1.296-0.04-1.664-0.04c-0.583,0-1.506,0.054-2.774,0.158
		c0.052,3.542,0.264,9.407,0.634,17.597c0.739,0.266,1.729,0.424,2.973,0.477c1.241,0.053,2.284,0.225,3.131,0.515
		c0.844,0.292,1.479,0.86,1.902,1.704c0.317,0.529,0.476,1.059,0.476,1.586c0,1.005-0.634,2.034-1.901,3.09
		c-1.11,0.107-2.512,0.252-4.202,0.438c-1.692,0.186-3.184,0.33-4.479,0.436c-1.296,0.106-2.576,0.158-3.844,0.158
		c-2.802,0-6.341-0.343-10.622-1.031c-0.688-0.738-1.029-1.53-1.029-2.377c0-1.109,0.793-2.324,2.378-3.646
		c0.475-0.209,0.95-0.316,1.427-0.316c0.475,0,0.951,0.197,1.427,0.595c0.475,0.396,0.818,0.594,1.029,0.594
		c0.369,0,0.819-0.289,1.349-0.872l0.237-14.268c0.264-4.648,0.396-11.176,0.396-19.578l-0.079-11.256
		c-0.266,0.266-1.031,0.396-2.299,0.396c-1.269,0-2.961-0.209-5.072-0.634c-0.584-0.686-0.873-1.426-0.873-2.219
		c0-1.215,0.502-2.271,1.507-3.171c2.323-0.052,5.362-0.185,9.114-0.396c3.752-0.21,7.027-0.316,9.829-0.316
		c4.808,0,8.745,0.37,11.811,1.109c3.063,0.741,6.024,2.406,8.878,4.993c1.954,1.744,3.091,4.438,3.408,8.085
		c0,0.159,0.012,0.396,0.039,0.714c0.025,0.316,0.04,0.555,0.04,0.713c0,2.326-0.714,4.571-2.141,6.738
		C508.319,356.075,505.228,358.637,501.423,360.328z M487.235,336.865c-0.425,4.756-0.635,8.218-0.635,10.385
		c0,2.271,0.21,5.23,0.635,8.877c0.792,0.74,1.743,1.109,2.853,1.109c0.423,0,0.897-0.064,1.427-0.198
		c0.527-0.13,0.978-0.277,1.349-0.437c0.367-0.158,0.883-0.382,1.544-0.673c0.661-0.289,1.15-0.516,1.468-0.674
		c1.214-0.476,2.165-0.978,2.854-1.507c0.686-0.526,1.24-1.268,1.664-2.219c0.845-1.69,1.269-3.381,1.269-5.072
		c0-1.638-0.424-3.302-1.269-4.994c-1.004-2.061-2.96-3.593-5.866-4.598c-1.585-0.527-2.723-0.792-3.408-0.792
		C490.168,336.073,488.871,336.337,487.235,336.865z"/>
	<path fill="#222222" d="M580.132,380.38c-1.375,1.956-3.013,3.556-4.914,4.796c-1.902,1.242-4.188,2.168-6.856,2.774
		c-2.669,0.608-5.061,1.03-7.174,1.269c-2.114,0.237-4.914,0.436-8.401,0.594c-0.213,0-0.477,0.012-0.793,0.04
		c-0.316,0.025-0.555,0.04-0.713,0.04c-3.171,0-6.5-0.924-9.987-2.774c-3.065-1.638-5.549-3.355-7.451-5.152
		c-1.902-1.796-3.699-4.148-5.39-7.055c-2.272-4.016-3.408-7.793-3.408-11.335c0-0.951,0.025-1.664,0.078-2.14
		c0.211-3.646,0.885-6.777,2.022-9.394c1.136-2.615,2.918-5.587,5.35-8.917c2.166-2.904,4.281-5.203,6.341-6.896
		c2.062-1.69,4.702-3.222,7.927-4.598c0.793-0.368,1.546-0.659,2.259-0.872c0.714-0.209,1.532-0.368,2.457-0.475
		c0.924-0.105,1.586-0.172,1.981-0.199c0.396-0.025,1.241-0.039,2.537-0.039c1.295,0,2.126,0,2.497,0h1.506
		c3.487,0,6.499,0.305,9.035,0.911c2.537,0.609,4.451,1.282,5.747,2.021c1.294,0.741,3.236,2.01,5.826,3.806
		c0.793,2.431,1.189,4.466,1.189,6.103c0,2.01-1.031,5.126-3.092,9.354c-1.322-0.898-2.168-2.285-2.536-4.162
		c-0.371-1.874-0.9-3.182-1.585-3.923c-2.327-2.483-4.519-4.332-6.579-5.549c-2.061-1.215-4.572-2.033-7.53-2.457
		c-1.163-0.159-2.326-0.238-3.488-0.238c-3.594,0-6.949,1.217-10.066,3.646c-3.064,2.378-5.298,4.981-6.697,7.807
		c-1.401,2.828-2.312,6.303-2.734,10.424c-0.107,0.793-0.158,1.956-0.158,3.488c0,4.862,1.636,9.326,4.913,13.395
		c1.903,2.379,3.936,4.11,6.104,5.192c2.167,1.083,4.861,1.837,8.085,2.259c1.796,0.212,3.092,0.317,3.885,0.317
		c3.75,0,6.975-1.161,9.67-3.488c0-1.372,0.012-2.666,0.039-3.884c0.026-1.215,0.052-2.112,0.08-2.694
		c0.025-0.581,0.039-1.003,0.039-1.269c0-0.051-0.212-1.269-0.634-3.646c-0.213-1.002-0.9-1.624-2.062-1.862
		c-1.163-0.238-2.431-0.447-3.805-0.634c-1.374-0.185-2.352-0.699-2.932-1.546c-0.529-0.793-0.529-1.453,0-1.981
		c1.901-0.158,5.151-0.303,9.748-0.436c4.599-0.131,9.009-0.438,13.238-0.912c0.475,0.475,0.713,1.059,0.713,1.743
		c0,0.793-0.316,1.56-0.951,2.3c-0.212,0.211-0.503,0.316-0.872,0.316c-0.212,0-0.503-0.039-0.872-0.119
		c-0.37-0.078-0.633-0.119-0.793-0.119c-0.369,0-0.582,0.188-0.633,0.556c-0.055,0.424-0.08,1.059-0.08,1.902
		c0,1.269,0.092,3.079,0.277,5.43c0.185,2.353,0.277,3.951,0.277,4.795C580.766,378.585,580.555,379.747,580.132,380.38z"/>
</g>
<g>
	<path fill="#222222" d="M28.914,417.94c1.636,4.751,3.382,10.479,5.239,17.182c0.157,0.472,0.519,0.708,1.085,0.708
		c0.252,0,0.425-0.095,0.52-0.283c1.007-2.36,1.801-4.232,2.384-5.617c0.582-1.385,1.148-2.785,1.699-4.201
		c0.55-1.416,0.928-2.376,1.133-2.879c0.205-0.504,0.668-1.724,1.393-3.658c0.724-1.936,1.29-3.47,1.699-4.603
		c0.031-0.095,0.047-0.204,0.047-0.33c0-0.315-0.362-0.473-1.085-0.473c-0.126,0-0.347,0.008-0.661,0.024
		c-0.315,0.016-0.551,0.023-0.708,0.023c-1.07,0-1.731-0.236-1.983-0.708c-0.094-0.189-0.142-0.394-0.142-0.614
		c0-0.409,0.173-0.755,0.52-1.038c2.895,0.062,5.711,0.204,8.449,0.425c0.125,0.157,0.188,0.346,0.188,0.566
		c0,0.346-0.268,0.803-0.802,1.369c-0.536,0.566-0.866,0.991-0.991,1.274c-1.636,3.587-3.595,8.339-5.877,14.255
		s-4.524,11.234-6.726,15.954c-0.189,0.378-0.566,0.566-1.133,0.566s-0.897-0.188-0.991-0.566c-0.566-2.36-1.18-4.72-1.841-7.08
		c-0.661-2.36-1.495-5.185-2.502-8.473c-1.007-3.289-1.589-5.216-1.746-5.782c-2.455,6.45-5.492,13.562-9.11,21.335
		c-0.188,0.378-0.535,0.566-1.038,0.566c-0.504,0-0.803-0.188-0.897-0.566c-1.165-4.972-1.99-8.434-2.478-10.385
		c-0.488-1.95-1.196-4.516-2.124-7.693c-0.929-3.179-2.085-6.907-3.47-11.188c-0.188-0.629-0.802-0.943-1.841-0.943H3.897
		c-1.007,0-1.668-0.268-1.982-0.803c-0.126-0.221-0.189-0.472-0.189-0.755c0-0.504,0.205-0.929,0.614-1.274
		c3.934-0.473,6.042-0.708,6.325-0.708c0.566,0,2.486,0.109,5.759,0.33c0.535,0.409,0.661,0.818,0.378,1.228
		c-0.221,0.377-0.661,0.566-1.322,0.566c-0.378,0-0.968-0.087-1.77-0.26c-0.803-0.173-1.33-0.26-1.582-0.26
		c-0.409,0-0.614,0.157-0.614,0.472c0,0.126,0.016,0.221,0.047,0.283c0.881,3.273,1.982,6.443,3.304,9.512s2.644,6.962,3.965,11.683
		c0.158,0.472,0.52,0.708,1.086,0.708c0.251,0,0.425-0.095,0.519-0.283c2.077-4.909,3.965-9.566,5.664-13.972l-1.888-5.523
		c-0.252-0.314-0.763-0.574-1.534-0.778c-0.771-0.205-1.251-0.527-1.44-0.968c-0.125-0.314-0.188-0.566-0.188-0.755
		c0-0.504,0.205-0.929,0.613-1.274c0.378,0,0.857,0.008,1.44,0.023c0.582,0.016,0.983,0.023,1.204,0.023
		c1.102,0,2.195-0.023,3.28-0.071c1.086-0.047,1.865-0.07,2.337-0.07c1.353,0,3.209,0.078,5.57,0.236
		c0.535,0.408,0.661,0.817,0.377,1.227c-0.126,0.189-0.472,0.433-1.039,0.732c-0.566,0.299-0.976,0.448-1.227,0.448
		c-0.503,0.062-0.984,0.354-1.44,0.873s-0.779,1.015-0.967,1.486L28.914,417.94z"/>
	<path fill="#222222" d="M82.488,418.412c1.73,2.455,2.596,5.177,2.596,8.166c0,1.668-0.268,3.871-0.803,6.608
		c-0.189,0.976-0.488,1.928-0.897,2.855c-0.409,0.929-0.787,1.66-1.133,2.195c-0.347,0.535-0.873,1.298-1.581,2.289
		s-1.22,1.723-1.534,2.195c-2.171,3.272-5.428,4.908-9.771,4.908c-2.801,0-5.224-0.519-7.27-1.558
		c-1.164-0.598-2.132-1.125-2.903-1.581c-0.771-0.456-1.621-1.038-2.549-1.746c-0.928-0.708-1.684-1.416-2.266-2.124
		c-0.583-0.708-1.109-1.55-1.581-2.525c-0.472-0.976-0.803-2.03-0.992-3.163c-0.314-2.14-0.472-3.917-0.472-5.333
		c0-3.683,1.117-7.002,3.351-9.96c1.982-2.612,4.161-4.516,6.538-5.712c2.376-1.195,5.2-1.793,8.473-1.793h0.189
		c2.769,0,5.176,0.495,7.222,1.486C79.152,414.612,80.946,416.208,82.488,418.412z M59.265,429.457c0,0.189-0.023,0.661-0.071,1.416
		c-0.047,0.756-0.071,1.322-0.071,1.7c0,2.014,0.44,3.839,1.322,5.475c0.724,1.259,1.51,2.242,2.36,2.95
		c0.85,0.708,1.951,1.282,3.304,1.724c1.258,0.44,2.391,0.66,3.399,0.66c1.196,0,2.438-0.346,3.729-1.038
		c1.385-0.787,2.431-1.707,3.139-2.762c0.708-1.054,1.439-2.557,2.195-4.508c1.007-2.485,1.511-4.751,1.511-6.797
		c0-0.976-0.095-2.061-0.283-3.257c-0.283-1.699-0.677-3.092-1.18-4.178c-0.503-1.085-1.322-2.116-2.455-3.092
		c-1.952-1.699-3.871-2.549-5.759-2.549c-1.038,0-2.038,0.182-2.997,0.543c-0.96,0.362-1.739,0.747-2.336,1.156
		c-0.598,0.409-1.204,0.976-1.817,1.7c-0.614,0.724-1.031,1.242-1.251,1.557c-0.22,0.315-0.503,0.771-0.85,1.369
		c-0.536,0.85-0.937,1.73-1.204,2.644c-0.268,0.912-0.433,1.676-0.496,2.289C59.39,427.074,59.328,428.073,59.265,429.457z"/>
	<path fill="#222222" d="M118.598,418.412c1.73,2.455,2.596,5.177,2.596,8.166c0,1.668-0.268,3.871-0.803,6.608
		c-0.188,0.976-0.488,1.928-0.896,2.855c-0.409,0.929-0.787,1.66-1.133,2.195c-0.347,0.535-0.874,1.298-1.582,2.289
		s-1.22,1.723-1.534,2.195c-2.171,3.272-5.428,4.908-9.771,4.908c-2.801,0-5.224-0.519-7.269-1.558
		c-1.165-0.598-2.132-1.125-2.903-1.581c-0.771-0.456-1.621-1.038-2.549-1.746s-1.683-1.416-2.266-2.124s-1.109-1.55-1.581-2.525
		s-0.803-2.03-0.991-3.163c-0.315-2.14-0.472-3.917-0.472-5.333c0-3.683,1.117-7.002,3.352-9.96
		c1.982-2.612,4.161-4.516,6.537-5.712c2.376-1.195,5.2-1.793,8.473-1.793h0.188c2.769,0,5.176,0.495,7.222,1.486
		C115.262,414.612,117.056,416.208,118.598,418.412z M95.375,429.457c0,0.189-0.024,0.661-0.071,1.416
		c-0.047,0.756-0.071,1.322-0.071,1.7c0,2.014,0.44,3.839,1.321,5.475c0.724,1.259,1.511,2.242,2.36,2.95s1.951,1.282,3.304,1.724
		c1.258,0.44,2.391,0.66,3.398,0.66c1.196,0,2.438-0.346,3.729-1.038c1.384-0.787,2.431-1.707,3.139-2.762
		c0.708-1.054,1.44-2.557,2.195-4.508c1.007-2.485,1.511-4.751,1.511-6.797c0-0.976-0.095-2.061-0.283-3.257
		c-0.283-1.699-0.677-3.092-1.18-4.178c-0.503-1.085-1.322-2.116-2.455-3.092c-1.951-1.699-3.871-2.549-5.758-2.549
		c-1.039,0-2.038,0.182-2.998,0.543c-0.96,0.362-1.739,0.747-2.336,1.156c-0.598,0.409-1.204,0.976-1.817,1.7
		c-0.614,0.724-1.031,1.242-1.251,1.557c-0.22,0.315-0.503,0.771-0.85,1.369c-0.535,0.85-0.937,1.73-1.204,2.644
		c-0.268,0.912-0.433,1.676-0.496,2.289C95.5,427.074,95.437,428.073,95.375,429.457z"/>
	<path fill="#222222" d="M124.451,415.721h-0.283c-1.291,0-1.999-0.33-2.124-0.991v-0.142c0-0.818,0.865-1.589,2.596-2.312
		c0.661-0.315,1.4-0.473,2.218-0.473c0.22,0,0.566,0.016,1.039,0.048c0.472,0.031,0.865,0.047,1.18,0.047
		c0.597,0,1.4-0.008,2.407-0.023c1.007-0.016,1.73-0.023,2.171-0.023c3.241,0,6.278,0.377,9.11,1.133
		c1.29,0.346,2.266,0.629,2.926,0.85c0.661,0.22,1.416,0.559,2.266,1.015c0.85,0.456,1.668,1.03,2.455,1.723
		c1.448,1.29,2.565,2.518,3.352,3.682s1.416,2.628,1.888,4.39c0.314,1.228,0.472,2.376,0.472,3.446c0,1.228-0.299,3.036-0.896,5.428
		c-0.535,2.046-1.054,3.658-1.558,4.839c-0.504,1.18-1.322,2.383-2.455,3.61c-1.07,1.164-2.124,2.054-3.163,2.667
		s-2.407,1.204-4.106,1.771c-1.731,0.566-3.65,0.85-5.759,0.85c-0.346,0-0.881-0.008-1.605-0.023
		c-0.724-0.017-1.306-0.024-1.747-0.024h-0.661h-2.266c-3.179,0-6.545-0.22-10.101-0.66c-0.252-0.283-0.378-0.74-0.378-1.369
		s0.126-1.243,0.378-1.841c0.44-0.347,0.959-0.52,1.558-0.52c0.346,0,0.865,0.063,1.558,0.189c0.692,0.125,1.196,0.188,1.51,0.188
		c0.755,0,1.322-0.236,1.699-0.708c0.125-3.871,0.196-7.836,0.212-11.896c0.016-4.059,0.118-9.314,0.307-15.765
		c-0.252-0.252-0.566-0.378-0.944-0.378c-0.283,0-0.771,0.095-1.463,0.283c-0.252,0.031-0.535,0.205-0.85,0.52
		S124.765,415.721,124.451,415.721z M134.033,415.626c-0.347,7.49-0.536,12.949-0.566,16.38c-0.032,3.43-0.111,6.749-0.236,9.959
		v0.048c0,0.157,0.023,0.307,0.071,0.448c0.047,0.142,0.142,0.26,0.283,0.354c0.142,0.095,0.259,0.173,0.354,0.236
		c0.094,0.062,0.251,0.126,0.472,0.188c0.22,0.063,0.394,0.11,0.52,0.142c0.125,0.032,0.322,0.063,0.59,0.095
		c0.267,0.031,0.448,0.062,0.543,0.095c0.472,0.094,0.896,0.142,1.274,0.142c0.881,0,2.061-0.315,3.54-0.944
		c1.573-0.661,2.824-1.33,3.752-2.006c0.928-0.677,1.817-1.613,2.667-2.809c1.039-1.448,1.77-2.801,2.195-4.06
		s0.637-2.754,0.637-4.484v-0.33c-0.031-1.92-0.283-3.564-0.755-4.933c-0.472-1.369-1.291-2.809-2.455-4.319
		c-0.913-1.227-1.849-2.163-2.809-2.809c-0.96-0.645-2.179-1.188-3.658-1.628c-1.856-0.535-3.1-0.803-3.729-0.803
		C135.716,414.588,134.819,414.935,134.033,415.626z"/>
	<path fill="#222222" d="M185.672,417.94c1.636,4.751,3.383,10.479,5.239,17.182c0.157,0.472,0.519,0.708,1.085,0.708
		c0.252,0,0.425-0.095,0.52-0.283c1.007-2.36,1.801-4.232,2.383-5.617c0.583-1.385,1.149-2.785,1.7-4.201
		c0.55-1.416,0.928-2.376,1.133-2.879c0.205-0.504,0.668-1.724,1.392-3.658c0.724-1.936,1.291-3.47,1.699-4.603
		c0.032-0.095,0.047-0.204,0.047-0.33c0-0.315-0.362-0.473-1.085-0.473c-0.126,0-0.346,0.008-0.661,0.024
		c-0.314,0.016-0.55,0.023-0.708,0.023c-1.07,0-1.73-0.236-1.982-0.708c-0.094-0.189-0.142-0.394-0.142-0.614
		c0-0.409,0.173-0.755,0.52-1.038c2.895,0.062,5.711,0.204,8.449,0.425c0.126,0.157,0.189,0.346,0.189,0.566
		c0,0.346-0.268,0.803-0.802,1.369c-0.535,0.566-0.866,0.991-0.991,1.274c-1.637,3.587-3.595,8.339-5.877,14.255
		c-2.281,5.916-4.523,11.234-6.726,15.954c-0.189,0.378-0.566,0.566-1.133,0.566s-0.897-0.188-0.991-0.566
		c-0.566-2.36-1.18-4.72-1.841-7.08c-0.661-2.36-1.495-5.185-2.502-8.473c-1.007-3.289-1.589-5.216-1.747-5.782
		c-2.454,6.45-5.491,13.562-9.11,21.335c-0.189,0.378-0.535,0.566-1.039,0.566c-0.503,0-0.802-0.188-0.896-0.566
		c-1.165-4.972-1.991-8.434-2.478-10.385c-0.488-1.95-1.196-4.516-2.125-7.693c-0.928-3.179-2.084-6.907-3.469-11.188
		c-0.188-0.629-0.802-0.943-1.841-0.943h-1.227c-1.007,0-1.668-0.268-1.983-0.803c-0.125-0.221-0.188-0.472-0.188-0.755
		c0-0.504,0.205-0.929,0.614-1.274c3.933-0.473,6.042-0.708,6.325-0.708c0.566,0,2.486,0.109,5.759,0.33
		c0.535,0.409,0.661,0.818,0.377,1.228c-0.22,0.377-0.661,0.566-1.321,0.566c-0.378,0-0.968-0.087-1.77-0.26
		c-0.803-0.173-1.33-0.26-1.582-0.26c-0.409,0-0.614,0.157-0.614,0.472c0,0.126,0.016,0.221,0.047,0.283
		c0.881,3.273,1.982,6.443,3.304,9.512s2.643,6.962,3.965,11.683c0.157,0.472,0.52,0.708,1.086,0.708
		c0.251,0,0.425-0.095,0.519-0.283c2.077-4.909,3.965-9.566,5.664-13.972l-1.888-5.523c-0.251-0.314-0.763-0.574-1.534-0.778
		c-0.771-0.205-1.251-0.527-1.44-0.968c-0.126-0.314-0.188-0.566-0.188-0.755c0-0.504,0.204-0.929,0.613-1.274
		c0.378,0,0.857,0.008,1.44,0.023c0.582,0.016,0.983,0.023,1.204,0.023c1.101,0,2.195-0.023,3.28-0.071
		c1.086-0.047,1.865-0.07,2.337-0.07c1.353,0,3.209,0.078,5.569,0.236c0.535,0.408,0.661,0.817,0.378,1.227
		c-0.126,0.189-0.472,0.433-1.039,0.732c-0.566,0.299-0.976,0.448-1.227,0.448c-0.503,0.062-0.983,0.354-1.44,0.873
		c-0.456,0.52-0.779,1.015-0.967,1.486L185.672,417.94z"/>
	<path fill="#222222" d="M239.246,418.412c1.73,2.455,2.596,5.177,2.596,8.166c0,1.668-0.267,3.871-0.802,6.608
		c-0.189,0.976-0.488,1.928-0.897,2.855c-0.409,0.929-0.787,1.66-1.133,2.195s-0.873,1.298-1.581,2.289s-1.22,1.723-1.534,2.195
		c-2.171,3.272-5.428,4.908-9.771,4.908c-2.8,0-5.224-0.519-7.269-1.558c-1.164-0.598-2.132-1.125-2.903-1.581
		s-1.621-1.038-2.549-1.746s-1.684-1.416-2.266-2.124s-1.109-1.55-1.582-2.525c-0.472-0.976-0.802-2.03-0.991-3.163
		c-0.314-2.14-0.472-3.917-0.472-5.333c0-3.683,1.117-7.002,3.351-9.96c1.982-2.612,4.162-4.516,6.538-5.712
		c2.376-1.195,5.2-1.793,8.473-1.793h0.189c2.769,0,5.176,0.495,7.222,1.486S237.704,416.208,239.246,418.412z M216.022,429.457
		c0,0.189-0.023,0.661-0.071,1.416c-0.047,0.756-0.071,1.322-0.071,1.7c0,2.014,0.44,3.839,1.322,5.475
		c0.724,1.259,1.51,2.242,2.36,2.95s1.951,1.282,3.304,1.724c1.259,0.44,2.392,0.66,3.398,0.66c1.196,0,2.439-0.346,3.729-1.038
		c1.385-0.787,2.431-1.707,3.139-2.762c0.708-1.054,1.439-2.557,2.195-4.508c1.007-2.485,1.51-4.751,1.51-6.797
		c0-0.976-0.094-2.061-0.283-3.257c-0.283-1.699-0.676-3.092-1.18-4.178c-0.503-1.085-1.322-2.116-2.455-3.092
		c-1.951-1.699-3.871-2.549-5.759-2.549c-1.039,0-2.038,0.182-2.997,0.543c-0.96,0.362-1.739,0.747-2.337,1.156
		c-0.598,0.409-1.204,0.976-1.817,1.7c-0.614,0.724-1.031,1.242-1.251,1.557c-0.22,0.315-0.503,0.771-0.85,1.369
		c-0.535,0.85-0.936,1.73-1.204,2.644c-0.268,0.912-0.433,1.676-0.496,2.289C216.148,427.074,216.085,428.073,216.022,429.457z"/>
	<path fill="#222222" d="M264.593,429.646l-0.047,0.047c0,0.157,0.638,0.889,1.912,2.195c1.274,1.306,3.005,3.226,5.192,5.759
		s4.13,5.09,5.83,7.67c-1.227,0.912-2.423,1.369-3.587,1.369c-0.976,0-2.329-0.315-4.059-0.944
		c-1.102-1.354-2.557-3.328-4.366-5.924c-1.81-2.596-3.32-4.704-4.532-6.325c-1.211-1.62-2.006-2.431-2.384-2.431
		c-0.188,0-0.503-0.008-0.944-0.023s-0.771-0.023-0.991-0.023c-0.346,0-0.897,0.031-1.652,0.094
		c0.031,2.108,0.157,5.602,0.377,10.479c0.44,0.158,1.031,0.252,1.77,0.284c0.74,0.031,1.361,0.134,1.865,0.307
		c0.503,0.173,0.881,0.511,1.133,1.015c0.188,0.314,0.283,0.629,0.283,0.944c0,0.598-0.378,1.211-1.133,1.841
		c-0.661,0.062-1.495,0.149-2.502,0.26c-1.007,0.109-1.896,0.196-2.667,0.259c-0.771,0.063-1.534,0.095-2.289,0.095
		c-1.668,0-3.776-0.204-6.325-0.613c-0.409-0.44-0.614-0.913-0.614-1.416c0-0.661,0.472-1.385,1.416-2.172
		c0.283-0.126,0.566-0.188,0.85-0.188s0.566,0.118,0.85,0.354c0.284,0.236,0.488,0.354,0.614,0.354c0.22,0,0.488-0.173,0.803-0.52
		l0.142-8.496c0.157-2.77,0.236-6.655,0.236-11.659l-0.047-6.702c-0.157,0.157-0.613,0.235-1.369,0.235s-1.762-0.126-3.021-0.377
		c-0.346-0.409-0.519-0.85-0.519-1.322c0-0.724,0.299-1.353,0.896-1.888c1.385-0.031,3.194-0.11,5.428-0.236
		c2.234-0.126,4.186-0.188,5.853-0.188c2.864,0,5.208,0.22,7.033,0.661c1.825,0.44,3.587,1.432,5.287,2.974
		c1.165,1.038,1.841,2.643,2.03,4.814c0,0.095,0.008,0.236,0.023,0.425c0.016,0.188,0.024,0.33,0.024,0.425
		c0,1.385-0.425,2.722-1.274,4.012C268.7,427.113,266.859,428.639,264.593,429.646z M256.144,415.674
		c-0.251,2.832-0.377,4.893-0.377,6.184c0,1.353,0.126,3.115,0.377,5.286c0.472,0.44,1.039,0.661,1.699,0.661
		c0.252,0,0.535-0.04,0.85-0.118c0.315-0.079,0.583-0.165,0.803-0.26s0.527-0.229,0.92-0.401s0.685-0.307,0.873-0.401
		c0.724-0.283,1.291-0.582,1.699-0.896c0.409-0.314,0.74-0.755,0.991-1.321c0.504-1.007,0.755-2.015,0.755-3.021
		c0-0.976-0.251-1.967-0.755-2.974c-0.598-1.228-1.762-2.14-3.493-2.737c-0.944-0.315-1.621-0.473-2.03-0.473
		C257.891,415.202,257.12,415.359,256.144,415.674z"/>
	<path fill="#222222" d="M283.521,416.193c0-0.346-0.189-0.519-0.566-0.519c-0.189,0-0.527,0.062-1.015,0.188
		s-0.857,0.188-1.109,0.188c-0.378,0-0.646-0.126-0.803-0.377c-0.189-0.315-0.283-0.661-0.283-1.039
		c0-0.976,0.503-1.793,1.511-2.454c0.912,0,1.707,0.008,2.383,0.023c0.677,0.016,1.188,0.023,1.534,0.023s0.629,0.008,0.85,0.023
		c0.22,0.017,0.386,0.024,0.496,0.024c0.11,0,0.197,0,0.26,0c0.031,0,0.205-0.008,0.519-0.024c0.315-0.016,0.991-0.031,2.03-0.047
		s2.376-0.023,4.012-0.023c0.503,0.472,0.755,1.07,0.755,1.794s-0.252,1.321-0.755,1.793c-0.22,0.221-0.488,0.331-0.802,0.331
		c-0.283,0-0.7-0.11-1.251-0.331c-0.551-0.22-0.952-0.33-1.204-0.33c-0.315,0-0.583,0.11-0.803,0.33
		c0,0.504,0.008,1.117,0.024,1.841c0.016,0.725,0.023,1.196,0.023,1.416c0,1.448-0.055,2.738-0.165,3.871
		c-0.11,1.133-0.197,2.927-0.26,5.381c0.314,0.818,0.692,1.228,1.133,1.228h0.047c1.196-1.668,1.935-2.714,2.218-3.139
		s0.677-0.976,1.18-1.652s0.858-1.141,1.062-1.393s0.803-1.022,1.794-2.312c0.991-1.291,2.132-2.77,3.422-4.438
		c-0.126-0.566-0.795-0.896-2.006-0.991c-1.212-0.095-1.881-0.425-2.006-0.991c-0.032-0.095-0.048-0.204-0.048-0.33
		c0-0.535,0.213-0.968,0.638-1.299c0.425-0.33,1.03-0.668,1.817-1.015c0.912,0,1.715-0.008,2.407-0.023s1.18-0.031,1.463-0.047
		s0.44-0.023,0.472-0.023h0.048c0,0.031-0.031,0.047-0.095,0.047c-0.062,0-0.095,0.016-0.095,0.047c0,0.095,1.149,0.221,3.446,0.378
		c0.095,0.031,0.283,0.118,0.566,0.26s0.479,0.235,0.59,0.283c0.11,0.047,0.252,0.134,0.425,0.26s0.291,0.259,0.354,0.401
		c0.062,0.141,0.094,0.307,0.094,0.495v0.142c-0.031,0.44-0.228,0.755-0.59,0.944c-0.361,0.188-0.818,0.354-1.369,0.495
		s-0.967,0.339-1.25,0.59c-1.008,0.85-1.755,1.495-2.242,1.936c-0.488,0.44-1.031,0.983-1.629,1.629
		c-0.598,0.645-1.062,1.188-1.393,1.628c-0.33,0.44-1.038,1.338-2.124,2.69c-1.086,1.354-2.163,2.707-3.233,4.06
		c1.385,1.228,2.384,2.116,2.997,2.667c0.614,0.551,1.307,1.243,2.077,2.077c0.771,0.834,1.338,1.479,1.699,1.935
		c0.362,0.457,1.228,1.519,2.597,3.187c1.368,1.668,2.714,3.304,4.035,4.909c0.221,0.095,0.425,0.142,0.614,0.142
		c0.251,0,0.613-0.079,1.085-0.236c0.473-0.157,0.803-0.235,0.991-0.235c0.315,0,0.582,0.109,0.803,0.33
		c0.629,0.629,0.944,1.306,0.944,2.029c0,0.599-0.268,1.196-0.803,1.794h-16.237c-0.409-0.409-0.613-0.865-0.613-1.369
		c0-0.503,0.204-0.96,0.613-1.368c0.252-0.252,0.535-0.378,0.85-0.378c0.283,0,0.724,0.11,1.321,0.33
		c0.599,0.221,1.039,0.331,1.322,0.331c0.314,0,0.582-0.095,0.802-0.283c0.473-0.378,0.708-0.913,0.708-1.605
		c0-0.252-0.062-0.66-0.188-1.227c-1.038-1.228-1.912-2.274-2.62-3.14s-1.18-1.447-1.416-1.746c-0.235-0.299-0.66-0.787-1.274-1.464
		c-0.613-0.676-1.612-1.738-2.997-3.186h-0.283c-1.007,0-1.856,0.677-2.549,2.029c-0.189,1.763-0.283,3.194-0.283,4.296
		s0.094,2.895,0.283,5.381c0.252,0.283,0.614,0.425,1.085,0.425c0.22,0,0.543-0.031,0.968-0.095c0.425-0.062,0.732-0.094,0.92-0.094
		c0.503,0,0.865,0.188,1.086,0.566c0.094,0.188,0.142,0.409,0.142,0.66c0,0.661-0.331,1.196-0.991,1.605
		c-2.203,0-3.981-0.071-5.334-0.213s-3.871-0.212-7.552-0.212c-0.315-0.315-0.472-0.708-0.472-1.181
		c0-0.472,0.157-0.881,0.472-1.227c0.44-0.473,1.007-0.708,1.699-0.708c0.283,0,0.787,0.062,1.51,0.188s1.291,0.188,1.699,0.188
		c0.346,0,0.598-0.016,0.755-0.047C284.056,436.396,283.742,427.396,283.521,416.193z"/>
	<path fill="#222222" d="M352.873,413.77c0,0.525-0.206,1.074-0.615,1.647c-0.41,0.573-0.926,0.86-1.549,0.86
		c-0.229,0-0.623-0.064-1.18-0.196c-0.558-0.131-0.968-0.197-1.229-0.197c-0.688,0-1.442,0.394-2.262,1.181
		c-0.819,0.786-1.229,1.573-1.229,2.359c0,1.278,0.9,1.918,2.704,1.918h0.541c0.523,0,0.949,0.024,1.278,0.073
		c0.327,0.05,0.679,0.246,1.057,0.591c0.377,0.344,0.565,0.845,0.565,1.499c0,0.951-0.606,1.967-1.819,3.049
		c-0.459,0.427-1.147,0.639-2.064,0.639c-0.165,0-0.41-0.008-0.738-0.024s-0.574-0.024-0.737-0.024
		c-1.049,0-1.705,0.344-1.967,1.032c-0.853,2.164-1.278,3.836-1.278,5.016s0.557,2.655,1.672,4.425
		c0.196,0.329,0.409,0.624,0.64,0.886c0.229,0.263,0.516,0.499,0.86,0.713c0.344,0.213,0.605,0.376,0.786,0.491
		c0.18,0.115,0.508,0.246,0.983,0.394s0.778,0.246,0.91,0.295c0.131,0.049,0.507,0.147,1.131,0.295
		c0.622,0.147,0.983,0.238,1.081,0.271c1.771,0.459,3.278,0.688,4.523,0.688c1.279,0,2.671-0.213,4.18-0.64
		c1.704-0.458,3.049-0.949,4.032-1.475c0.983-0.524,1.852-1.36,2.605-2.508c1.181-1.736,1.771-3.507,1.771-5.311
		c0-0.982-0.147-2.016-0.442-3.097c-0.558-2.131-1.591-3.458-3.098-3.983c-0.787-0.295-1.558-0.442-2.312-0.442
		c-1.115,0-2.024,0.312-2.729,0.935c-0.705,0.623-1.058,1.246-1.058,1.868c0,0.525,0.173,0.983,0.517,1.377s0.762,0.59,1.254,0.59
		c0.359,0,0.925-0.147,1.696-0.442c0.77-0.295,1.318-0.442,1.647-0.442c0.458,0,0.794,0.181,1.008,0.541
		c0.212,0.36,0.319,0.722,0.319,1.081c0,0.853-0.501,1.688-1.5,2.508c-1,0.82-2.139,1.229-3.417,1.229
		c-1.246,0-2.311-0.508-3.195-1.524c-0.886-1.016-1.328-2.229-1.328-3.639c0-1.377,0.377-2.736,1.131-4.081
		c0.131-0.229,0.262-0.442,0.394-0.639c0.131-0.197,0.295-0.377,0.491-0.541c0.197-0.163,0.353-0.303,0.468-0.418
		c0.114-0.115,0.311-0.237,0.59-0.369c0.278-0.131,0.467-0.221,0.565-0.271c0.099-0.049,0.319-0.131,0.664-0.245
		c0.344-0.115,0.557-0.181,0.639-0.197s0.336-0.081,0.762-0.196c0.427-0.115,0.672-0.188,0.738-0.222
		c0.394-0.131,0.868-0.196,1.426-0.196c1.016,0,2.466,0.319,4.352,0.959c1.884,0.639,3.171,0.958,3.859,0.958
		c0.59,0,1.082-0.163,1.476-0.491c0.393-0.327,0.639-0.632,0.737-0.91c0.098-0.277,0.147-0.499,0.147-0.663
		c0-0.426-0.565-0.844-1.696-1.254s-1.763-0.91-1.894-1.5c-0.065-0.458-0.098-0.819-0.098-1.081c0-1.213,0.359-2.188,1.081-2.926
		c0.721-0.737,1.722-1.106,3-1.106c0.654,0,1.278,0.091,1.868,0.271s1.171,0.631,1.745,1.352c0.573,0.723,0.86,1.672,0.86,2.853
		c0,2.819-0.901,5.048-2.704,6.687c-0.491,0.459-1.164,0.688-2.016,0.688c-0.23,0-0.582-0.024-1.058-0.074
		c-0.476-0.049-0.827-0.073-1.057-0.073c-0.82,0-1.418,0.196-1.795,0.59c-0.378,0.394-0.565,0.804-0.565,1.229
		c0,0.295,0.139,0.778,0.418,1.45c0.278,0.672,0.418,1.222,0.418,1.647c0.032,0.754,0.131,1.77,0.295,3.048
		c0.163,1.279,0.246,2.213,0.246,2.803c0,1.705-0.606,3.344-1.819,4.917c-0.23,0.329-0.614,0.853-1.155,1.573
		c-0.541,0.723-0.943,1.237-1.205,1.549c-0.263,0.312-0.639,0.697-1.131,1.156c-0.491,0.459-1,0.811-1.524,1.057
		s-1.114,0.435-1.77,0.565c-3.377,0.722-5.917,1.082-7.621,1.082c-1.705,0-3.59-0.246-5.654-0.737
		c-1.935-0.459-3.483-0.984-4.646-1.574c-1.165-0.59-2.222-1.523-3.172-2.803c-2.032-2.785-3.048-5.359-3.048-7.719
		c0-1.082,0.229-2.277,0.688-3.59c0.654-1.803,1.22-3.122,1.696-3.958c0.475-0.836,0.844-1.27,1.105-1.303
		c0.262-0.032,0.582-0.131,0.959-0.295c0.377-0.163,0.746-0.524,1.106-1.082c-0.164-0.688-0.574-1.434-1.229-2.237
		c-0.655-0.803-0.983-1.532-0.983-2.188c0.033-1.639,0.32-3.024,0.86-4.155c0.541-1.131,1.5-2.105,2.877-2.925
		c1.77-1.082,3.393-1.623,4.867-1.623c0.983,0,1.778,0.295,2.385,0.885S352.873,413.148,352.873,413.77z"/>
	<path fill="#222222" d="M406.26,415.721h-0.283c-1.29,0-1.998-0.33-2.124-0.991v-0.142c0-0.818,0.866-1.589,2.597-2.312
		c0.66-0.315,1.4-0.473,2.219-0.473c0.22,0,0.566,0.016,1.038,0.048c0.472,0.031,0.865,0.047,1.18,0.047
		c0.599,0,1.4-0.008,2.407-0.023c1.008-0.016,1.731-0.023,2.172-0.023c3.241,0,6.277,0.377,9.109,1.133
		c1.291,0.346,2.266,0.629,2.927,0.85c0.661,0.22,1.416,0.559,2.266,1.015s1.668,1.03,2.455,1.723
		c1.447,1.29,2.564,2.518,3.351,3.682c0.787,1.164,1.416,2.628,1.889,4.39c0.314,1.228,0.472,2.376,0.472,3.446
		c0,1.228-0.299,3.036-0.896,5.428c-0.535,2.046-1.055,3.658-1.558,4.839c-0.504,1.18-1.322,2.383-2.455,3.61
		c-1.069,1.164-2.124,2.054-3.162,2.667c-1.039,0.613-2.407,1.204-4.106,1.771c-1.731,0.566-3.65,0.85-5.759,0.85
		c-0.347,0-0.881-0.008-1.605-0.023c-0.724-0.017-1.306-0.024-1.746-0.024h-0.661h-2.266c-3.178,0-6.545-0.22-10.101-0.66
		c-0.252-0.283-0.378-0.74-0.378-1.369s0.126-1.243,0.378-1.841c0.44-0.347,0.959-0.52,1.558-0.52c0.346,0,0.865,0.063,1.558,0.189
		c0.692,0.125,1.195,0.188,1.51,0.188c0.756,0,1.322-0.236,1.7-0.708c0.125-3.871,0.196-7.836,0.212-11.896
		c0.016-4.059,0.118-9.314,0.307-15.765c-0.252-0.252-0.566-0.378-0.943-0.378c-0.283,0-0.771,0.095-1.464,0.283
		c-0.252,0.031-0.535,0.205-0.85,0.52S406.575,415.721,406.26,415.721z M415.842,415.626c-0.346,7.49-0.534,12.949-0.566,16.38
		c-0.031,3.43-0.109,6.749-0.235,9.959v0.048c0,0.157,0.023,0.307,0.07,0.448c0.048,0.142,0.142,0.26,0.283,0.354
		c0.142,0.095,0.26,0.173,0.354,0.236c0.094,0.062,0.252,0.126,0.472,0.188c0.221,0.063,0.394,0.11,0.52,0.142
		c0.126,0.032,0.322,0.063,0.59,0.095s0.448,0.062,0.543,0.095c0.472,0.094,0.896,0.142,1.274,0.142c0.881,0,2.061-0.315,3.54-0.944
		c1.573-0.661,2.824-1.33,3.753-2.006c0.928-0.677,1.816-1.613,2.666-2.809c1.039-1.448,1.771-2.801,2.195-4.06
		s0.638-2.754,0.638-4.484v-0.33c-0.032-1.92-0.283-3.564-0.756-4.933c-0.472-1.369-1.29-2.809-2.454-4.319
		c-0.913-1.227-1.849-2.163-2.809-2.809c-0.96-0.645-2.18-1.188-3.658-1.628c-1.856-0.535-3.1-0.803-3.729-0.803
		C417.525,414.588,416.629,414.935,415.842,415.626z"/>
	<path fill="#222222" d="M460.354,416.807c-1.195-0.221-2.36-0.331-3.493-0.331c-1.164,0-2.549,0.142-4.153,0.425
		c-0.095,0.032-0.236,0.048-0.425,0.048c-0.095,0-0.221-0.008-0.378-0.023s-0.268-0.024-0.33-0.024
		c-0.378,0-0.677,0.126-0.896,0.378c-0.032,1.447-0.048,3.194-0.048,5.239c0,2.234,0.016,4.248,0.048,6.042
		c2.391,0.44,3.697,0.661,3.917,0.661c0.566,0,1.274-0.095,2.124-0.283c0.566-0.378,0.85-1.039,0.85-1.982
		c0-0.157-0.008-0.378-0.023-0.661s-0.023-0.487-0.023-0.613c0-0.976,0.283-1.637,0.85-1.982c0.347-0.221,0.724-0.331,1.133-0.331
		c0.63,0,1.18,0.252,1.652,0.756c0,1.667,0.062,6.23,0.188,13.688c-0.912,0.377-1.558,0.566-1.936,0.566
		c-0.408,0-0.896-0.331-1.463-0.991c-0.062-0.252-0.095-0.582-0.095-0.991c0-0.504,0.11-0.944,0.331-1.322
		c0.22-0.377,0.33-0.629,0.33-0.755c0-0.095-0.047-0.268-0.142-0.52c-0.126-0.22-0.283-0.401-0.472-0.543
		c-0.189-0.142-0.339-0.235-0.448-0.283c-0.11-0.047-0.347-0.117-0.708-0.212c-0.362-0.095-0.575-0.157-0.638-0.188
		c-1.195-0.378-2.108-0.566-2.737-0.566c-0.378,0-0.803,0.047-1.274,0.142c-0.913,0.251-1.511,0.66-1.794,1.227
		c-0.378,1.889-0.605,3.352-0.685,4.39c-0.079,1.039-0.118,2.659-0.118,4.862c0.314,0.692,0.85,1.133,1.605,1.321
		c1.762,0.44,3.603,0.661,5.522,0.661c0.755,0,1.856-0.039,3.304-0.118c1.447-0.078,2.392-0.134,2.832-0.165
		c0.599-0.314,1.039-0.669,1.322-1.062c0.283-0.393,0.479-0.786,0.59-1.18s0.338-0.952,0.685-1.676
		c0.346-0.724,0.834-1.463,1.463-2.219c0.221,0.252,0.401,0.488,0.543,0.708c0.142,0.221,0.252,0.401,0.33,0.543
		c0.079,0.142,0.142,0.331,0.189,0.566c0.047,0.236,0.078,0.394,0.094,0.473c0.016,0.078,0.023,0.275,0.023,0.59s0,0.519,0,0.613
		c0.032,0.409,0.048,0.976,0.048,1.699c0,1.763-0.504,3.037-1.511,3.823h-25.772c-1.164-0.377-1.746-0.865-1.746-1.463
		c0-0.095,0.008-0.181,0.023-0.26c0.016-0.078,0.047-0.149,0.095-0.212c0.047-0.063,0.094-0.126,0.142-0.189
		c0.047-0.062,0.118-0.118,0.212-0.165c0.095-0.047,0.165-0.086,0.213-0.118c0.047-0.031,0.134-0.07,0.26-0.118
		c0.125-0.047,0.212-0.086,0.259-0.117c0.048-0.032,0.142-0.063,0.283-0.095s0.229-0.063,0.26-0.095
		c0.095-0.031,0.236-0.047,0.425-0.047c0.252,0,0.614,0.07,1.086,0.212s0.787,0.213,0.944,0.213c0.314,0,0.487-0.157,0.519-0.472
		c0.787-7.867,1.181-14.192,1.181-18.976c0-2.329-0.048-5.129-0.142-8.402c-0.535,0-0.991,0.024-1.369,0.071
		s-0.638,0.11-0.779,0.188c-0.142,0.079-0.259,0.142-0.354,0.189c-0.095,0.047-0.188,0.07-0.283,0.07s-0.283-0.047-0.566-0.142
		c-1.07-0.535-1.605-1.164-1.605-1.888v-0.142c0.063-0.85,0.401-1.503,1.016-1.959c0.613-0.456,1.486-0.873,2.619-1.251h4.721
		c2.014,0,4.083-0.008,6.207-0.023s3.375-0.023,3.752-0.023c2.077,0,4.705,0.283,7.883,0.85c0.032,0.534,0.056,1.069,0.071,1.604
		s0.031,0.937,0.047,1.204c0.016,0.267,0.023,0.542,0.023,0.825s0.008,0.496,0.024,0.638c0.016,0.142,0.031,0.275,0.047,0.401
		s0.047,0.252,0.094,0.377c0.048,0.126,0.095,0.244,0.143,0.354c0.047,0.11,0.109,0.275,0.188,0.495
		c0.078,0.221,0.165,0.441,0.26,0.661c0.062,0.252,0.291,0.566,0.685,0.944c0.393,0.378,0.59,0.661,0.59,0.85v0.047l-0.048,0.095
		c-1.542,0.503-2.706,0.755-3.492,0.755c-0.252,0-0.535-0.016-0.85-0.047c-0.315-0.031-0.756-0.071-1.322-0.118
		s-1.085-0.087-1.558-0.118c-0.094-0.126-0.142-0.22-0.142-0.283c0-0.094,0.165-0.291,0.496-0.59
		c0.33-0.299,0.495-0.669,0.495-1.109c0-0.252-0.016-0.44-0.047-0.566c-0.189-0.786-0.299-1.243-0.33-1.369
		c-0.032-0.125-0.15-0.251-0.354-0.377S460.605,417.153,460.354,416.807z"/>
	<path fill="#222222" d="M469.982,435.31c0.315-0.346,0.677-0.52,1.086-0.52c0.283,0,0.739,0.157,1.369,0.473
		c0.818,0.472,1.408,1.203,1.77,2.194c0.362,0.991,0.708,2.006,1.039,3.045c0.33,1.038,0.873,1.841,1.628,2.407
		c1.133,0.85,2.455,1.274,3.965,1.274c0.567,0,0.991-0.016,1.274-0.047c0.725-0.095,1.228-0.166,1.511-0.213
		s0.646-0.188,1.086-0.425s0.771-0.574,0.991-1.015c0.566-0.944,0.85-1.951,0.85-3.021c0-1.479-0.551-3.021-1.652-4.625
		c-0.566-0.818-1.243-1.433-2.029-1.841c-0.787-0.409-1.746-0.779-2.88-1.109c-1.133-0.331-2.045-0.685-2.737-1.062
		c-0.44-0.252-1.03-0.503-1.771-0.755c-0.739-0.252-1.36-0.52-1.864-0.803c-0.503-0.283-0.928-0.708-1.274-1.274
		c-1.228-1.92-1.841-3.886-1.841-5.9c0-1.479,0.347-3.131,1.039-4.956c0.377-1.038,0.889-1.864,1.533-2.478
		c0.646-0.614,1.503-1.125,2.573-1.534c1.101-0.44,2.171-0.661,3.209-0.661c0.692,0,2.439,0.299,5.24,0.896
		c0.283,0.063,0.716,0.134,1.298,0.213c0.582,0.078,1.007,0.149,1.274,0.212c0.268,0.063,0.59,0.205,0.968,0.425
		c0.377,0.221,0.676,0.52,0.896,0.897c0,2.076-0.039,3.517-0.118,4.318c-0.078,0.803-0.307,2.18-0.685,4.131
		c-0.314,0.062-0.519,0.094-0.613,0.094c-0.629,0-1.125-0.346-1.487-1.038c-0.361-0.692-0.613-1.471-0.755-2.337
		c-0.142-0.865-0.409-1.77-0.803-2.714c-0.393-0.944-0.92-1.62-1.581-2.029c-1.164-0.724-2.171-1.086-3.021-1.086
		c-0.661,0-1.259,0.221-1.794,0.661c-1.542,1.259-2.312,2.926-2.312,5.003c0,1.447,0.361,2.863,1.085,4.248
		c0.315,0.63,0.732,1.094,1.251,1.393c0.52,0.299,1.196,0.559,2.03,0.779c0.834,0.22,1.486,0.44,1.959,0.66
		c0.629,0.315,1.447,0.599,2.454,0.85c1.007,0.252,1.872,0.551,2.596,0.897c0.724,0.346,1.322,0.881,1.794,1.604
		c1.164,1.73,1.746,3.572,1.746,5.522c0,1.605-0.408,3.478-1.227,5.617c-0.473,1.259-1.078,2.266-1.817,3.021
		c-0.739,0.755-1.739,1.4-2.997,1.935c-1.165,0.504-2.392,0.756-3.683,0.756c-1.038,0-2.627-0.252-4.767-0.756
		c-0.315-0.094-0.582-0.173-0.803-0.235c-0.221-0.063-0.425-0.118-0.613-0.165c-0.189-0.048-0.386-0.126-0.591-0.236
		c-0.204-0.11-0.369-0.189-0.495-0.236s-0.322-0.165-0.59-0.354c-0.268-0.189-0.473-0.323-0.614-0.401
		c-0.142-0.079-0.433-0.268-0.873-0.566s-0.802-0.543-1.086-0.731c-0.188-1.794-0.283-3.132-0.283-4.013
		c0-0.44,0.024-1.117,0.071-2.029C469.959,436.757,469.982,435.971,469.982,435.31z"/>
	<path fill="#222222" d="M502.883,415.202c0.377,5.79,0.566,10.982,0.566,15.577v2.974c0,3.398,0.047,6.403,0.142,9.016
		c0.314,0.472,0.834,0.708,1.558,0.708c0.22,0,0.535-0.023,0.944-0.071c0.409-0.047,0.724-0.07,0.943-0.07
		c0.63,0,1.086,0.22,1.369,0.661c0.188,0.283,0.283,0.582,0.283,0.896c0,0.598-0.283,1.102-0.85,1.511
		c-1.888,0.031-3.438,0.07-4.649,0.118c-1.212,0.047-2.045,0.086-2.502,0.117c-0.456,0.032-0.794,0.048-1.015,0.048
		c-0.472,0-2.848-0.236-7.128-0.708c-0.503-0.409-0.755-0.897-0.755-1.464c0-0.377,0.11-0.692,0.331-0.943
		c0.283-0.378,0.707-0.566,1.273-0.566c0.347,0,0.897,0.102,1.652,0.307c0.756,0.204,1.29,0.307,1.605,0.307
		c0.408,0,0.755-0.142,1.038-0.425c-0.126-4.878-0.188-8.229-0.188-10.054c0-0.85,0.016-1.904,0.047-3.163s0.07-3.17,0.118-5.734
		c0.047-2.565,0.086-5.421,0.118-8.567c-0.315-0.44-0.834-0.661-1.558-0.661c-0.126,0-0.347,0.016-0.661,0.047
		c-0.314,0.032-0.551,0.048-0.708,0.048c-0.692,0-1.196-0.221-1.511-0.661c-0.283-0.378-0.425-0.771-0.425-1.18
		c0-0.473,0.188-0.882,0.566-1.228c2.329,0.031,4.091,0.062,5.287,0.095c1.195,0.031,1.942,0.055,2.242,0.07
		c0.299,0.016,0.542,0.031,0.731,0.047c0.188,0.017,0.369,0.032,0.543,0.048c0.173,0.016,0.802,0.047,1.888,0.094
		c1.086,0.048,2.62,0.103,4.603,0.166c0.126,0.126,0.188,0.361,0.188,0.708l-0.33,1.651c-0.283,0.473-0.724,0.708-1.322,0.708
		c-0.314,0-0.865-0.102-1.651-0.307c-0.787-0.204-1.385-0.307-1.794-0.307C503.496,415.013,503.166,415.076,502.883,415.202z"/>
	<path fill="#222222" d="M542.862,441.587c-0.817,1.165-1.793,2.117-2.926,2.856s-2.494,1.29-4.083,1.651
		c-1.59,0.362-3.014,0.614-4.272,0.756s-2.926,0.26-5.003,0.354c-0.126,0-0.283,0.008-0.472,0.024
		c-0.189,0.016-0.331,0.023-0.425,0.023c-1.889,0-3.871-0.551-5.948-1.652c-1.825-0.976-3.304-1.998-4.437-3.068
		c-1.133-1.069-2.203-2.47-3.21-4.201c-1.353-2.392-2.029-4.642-2.029-6.749c0-0.566,0.016-0.992,0.047-1.275
		c0.126-2.171,0.527-4.035,1.204-5.593c0.676-1.558,1.738-3.328,3.186-5.311c1.29-1.73,2.549-3.1,3.776-4.106s2.801-1.92,4.72-2.737
		c0.473-0.221,0.921-0.394,1.346-0.52s0.912-0.221,1.463-0.283c0.551-0.063,0.944-0.103,1.181-0.118
		c0.235-0.016,0.739-0.023,1.51-0.023c0.771,0,1.267,0,1.487,0h0.896c2.077,0,3.871,0.181,5.382,0.543
		c1.51,0.361,2.65,0.763,3.422,1.203c0.771,0.44,1.927,1.196,3.469,2.266c0.473,1.448,0.708,2.659,0.708,3.635
		c0,1.196-0.613,3.053-1.841,5.57c-0.786-0.535-1.29-1.361-1.51-2.479c-0.221-1.117-0.535-1.896-0.944-2.336
		c-1.385-1.479-2.69-2.581-3.918-3.305c-1.227-0.724-2.722-1.211-4.484-1.463c-0.692-0.095-1.384-0.142-2.076-0.142
		c-2.141,0-4.139,0.724-5.995,2.171c-1.825,1.416-3.154,2.966-3.988,4.649s-1.377,3.753-1.629,6.207
		c-0.062,0.472-0.094,1.164-0.094,2.077c0,2.895,0.976,5.554,2.926,7.977c1.133,1.416,2.345,2.447,3.635,3.092
		c1.29,0.646,2.896,1.094,4.814,1.346c1.07,0.126,1.841,0.188,2.313,0.188c2.234,0,4.153-0.692,5.759-2.077
		c0-0.817,0.008-1.589,0.023-2.312s0.031-1.259,0.047-1.604c0.016-0.347,0.023-0.599,0.023-0.756c0-0.031-0.126-0.755-0.377-2.171
		c-0.126-0.598-0.535-0.968-1.228-1.109s-1.447-0.268-2.266-0.378c-0.818-0.109-1.4-0.417-1.747-0.92
		c-0.314-0.472-0.314-0.865,0-1.181c1.133-0.094,3.068-0.181,5.807-0.259c2.737-0.079,5.365-0.26,7.882-0.543
		c0.283,0.283,0.426,0.629,0.426,1.038c0,0.473-0.189,0.929-0.566,1.369c-0.126,0.126-0.3,0.188-0.52,0.188
		c-0.126,0-0.299-0.023-0.52-0.07c-0.22-0.048-0.378-0.071-0.472-0.071c-0.221,0-0.347,0.11-0.378,0.331
		c-0.031,0.251-0.047,0.629-0.047,1.133c0,0.755,0.055,1.833,0.165,3.233s0.165,2.352,0.165,2.855
		C543.24,440.518,543.114,441.21,542.862,441.587z"/>
	<path fill="#222222" d="M576.942,414.73c-0.566,0-1.211,0.095-1.936,0.283c-0.724,0.188-1.195,0.283-1.416,0.283
		c-0.44,0-0.85-0.188-1.227-0.566c-0.189-0.188-0.283-0.409-0.283-0.661c0-0.157,0.07-0.425,0.212-0.802
		c0.142-0.378,0.213-0.661,0.213-0.85c0-0.158-0.048-0.331-0.142-0.52c1.95-0.126,3.335-0.188,4.153-0.188
		c1.322,0,3.478,0.094,6.467,0.283c0.378,0,0.566,0.22,0.566,0.66c0,0.787-0.33,1.511-0.991,2.172
		c-0.314,0.283-0.63,0.425-0.944,0.425c-0.094,0-0.346-0.023-0.755-0.071c-0.409-0.047-0.787-0.07-1.133-0.07
		c-0.157,3.115-0.236,6.058-0.236,8.826c0,1.542,0.04,3.454,0.118,5.735c0.079,2.281,0.118,4.067,0.118,5.357
		c0,2.423-0.079,4.956-0.236,7.6c-0.031,0.031-0.134,0.204-0.307,0.52c-0.173,0.314-0.322,0.551-0.448,0.708
		s-0.307,0.322-0.543,0.495s-0.479,0.275-0.731,0.307h-0.188c-0.692,0-1.433-0.535-2.219-1.604l-19.211-23.365
		c0.283,3.398,0.424,6.073,0.424,8.024c0,1.542-0.094,3.588-0.283,6.137c-0.188,2.549-0.283,4.767-0.283,6.655v1.321
		c0.126,0.378,0.473,0.566,1.039,0.566h0.472c0.44,0,0.739,0.126,0.897,0.378c0.125,0.22,0.188,0.456,0.188,0.708
		c0,0.221-0.087,0.566-0.26,1.038c-0.173,0.473-0.275,0.834-0.307,1.086c-1.102,0.031-2.471,0.103-4.106,0.212
		c-1.637,0.11-3.021,0.166-4.154,0.166h-1.416c-0.031-0.252-0.142-0.614-0.33-1.086s-0.283-0.818-0.283-1.038
		c0-0.221,0.062-0.44,0.188-0.661c0.347-0.472,0.944-0.708,1.794-0.708c0.283,0,0.692,0.031,1.228,0.095
		c0.534,0.062,0.912,0.094,1.133,0.094c0.377,0,0.66-0.094,0.85-0.283c-0.126-3.304-0.189-6.199-0.189-8.685
		c0-1.196,0.032-3.557,0.095-7.081s0.095-7.001,0.095-10.432c-0.157-0.251-0.535-0.377-1.133-0.377c-0.221,0-0.591,0.023-1.109,0.07
		c-0.52,0.048-0.905,0.071-1.156,0.071c-1.102,0-1.763-0.331-1.982-0.991c-0.063-0.189-0.095-0.331-0.095-0.425
		c0-0.724,0.661-1.385,1.982-1.982c1.511-0.378,2.77-0.566,3.776-0.566c1.164,0,2.895,0.314,5.192,0.943
		c1.384,1.668,2.918,3.501,4.602,5.499s2.872,3.414,3.564,4.248c0.691,0.834,1.589,1.928,2.69,3.281
		c1.101,1.353,2.171,2.729,3.209,4.13c1.039,1.4,2.345,3.171,3.918,5.311L576.942,414.73z"/>
</g>
</svg>
